<?xml version="1.0" encoding="utf-8"?>
<!-- Generator: Adobe Illustrator 25.2.3, SVG Export Plug-In . SVG Version: 6.00 Build 0)  -->
<svg version="1.1" id="Layer_1" xmlns="http://www.w3.org/2000/svg" xmlns:xlink="http://www.w3.org/1999/xlink" x="0px" y="0px"
	 viewBox="0 0 512 512" style="enable-background:new 0 0 512 512;" xml:space="preserve">
<style type="text/css">
	.st0{fill:#1AC1BF;}
</style>
<path class="st0" d="M423.1,393.3h-21.2v-14.2h21.2V393.3z M380.6,393.3h-21.2v-14.2h21.2V393.3z M338.1,393.3h-21.2v-14.2h21.2
	V393.3z M295.7,393.3h-21.2v-14.2h21.2V393.3z M253.2,393.3H232v-14.2h21.2V393.3z M210.7,393.3h-21.2v-14.2h21.2V393.3z
	 M168.3,393.3H147v-14.2h21.2V393.3z M125.8,393.3h-21.2v-14.2h21.2V393.3z M83.3,393.3H70.7l16.6-28.7l12.2,7.1l-10.5,18.1l-6-3.4
	L83.3,393.3z M406.5,371.5l-10.6-18.4l12.2-7.1l10.6,18.4L406.5,371.5z M110.2,353.3L98,346.2l10.6-18.4l12.2,7.1L110.2,353.3z
	 M385.2,334.7l-10.6-18.4l12.2-7.1l10.6,18.4L385.2,334.7z M131.5,316.5l-12.2-7.1l10.6-18.4l12.2,7.1L131.5,316.5z M363.9,298
	l-10.6-18.4l12.2-7.1l10.6,18.4L363.9,298z M152.7,279.8l-12.2-7.1l10.6-18.4l12.2,7.1L152.7,279.8z M342.7,261.2L332,242.8
	l12.2-7.1l10.6,18.4L342.7,261.2z M174,243l-12.2-7.1l10.6-18.4l12.2,7.1L174,243z M321.4,224.4L310.8,206L323,199l10.6,18.4
	L321.4,224.4z M195.3,206.3l-12.2-7.1l10.6-18.4l12.2,7.1L195.3,206.3z M300.1,187.7l-10.6-18.4l12.2-7.1l10.6,18.4L300.1,187.7z
	 M216.6,169.5l-12.2-7.1l10.6-18.4l12.2,7.1L216.6,169.5z M278.8,150.9l-10.6-18.4l12.2-7.1l10.6,18.4L278.8,150.9z M237.8,132.7
	l-12.2-7.1l10.6-18.4l12.2,7.1L237.8,132.7z M257.6,114.1L247,95.7l6-3.5l-6.1-3.5l6.3-10.6l16.7,28.9L257.6,114.1z"/>
<path class="st0" d="M216.5,38.3h73.2c4,0,7.2,3.2,7.2,7.2v73.2c0,4-3.2,7.2-7.2,7.2h-73.2c-4,0-7.2-3.2-7.2-7.2V45.5
	C209.2,41.5,212.5,38.3,216.5,38.3z"/>
<path class="st0" d="M400,347.2h71.5c4.5,0,8.1,3.6,8.1,8.1v71.5c0,4.5-3.6,8.1-8.1,8.1H400c-4.5,0-8.1-3.6-8.1-8.1v-71.5
	C391.9,350.8,395.5,347.2,400,347.2z"/>
<path class="st0" d="M33.8,347.2h73.3c4,0,7.2,3.2,7.2,7.2v73.3c0,4-3.2,7.2-7.2,7.2H33.8c-4,0-7.2-3.2-7.2-7.2v-73.3
	C26.6,350.4,29.8,347.2,33.8,347.2z"/>
</svg>
