<?xml version="1.0" encoding="utf-8"?>
<!-- Generator: Adobe Illustrator 25.2.3, SVG Export Plug-In . SVG Version: 6.00 Build 0)  -->
<svg version="1.1" id="Layer_1" xmlns="http://www.w3.org/2000/svg" xmlns:xlink="http://www.w3.org/1999/xlink" x="0px" y="0px"
	 viewBox="0 0 1500 1500" style="enable-background:new 0 0 1500 1500;" xml:space="preserve">
<style type="text/css">
	.st0{display:none;fill:#001F3F;}
	.st1{fill:#FFFFFF;}
	.st2{fill:#1AC1BF;}
</style>
<image style="display:none;overflow:visible;enable-background:new    ;" width="1025" height="1025" xlink:href="7D4913D6.jpg"  transform="matrix(0.999 0 0 0.999 238.3448 237.5517)">
</image>
<rect class="st0" width="1500" height="1500"/>
<g>
	<g>
		<path class="st1" d="M240.4,492h17v235.9h-17v-32.4c-5.5,11-13.2,19.8-23.3,26.5s-22.1,10-36,10c-11.4,0-22.1-2.1-32.1-6.4
			c-10-4.3-18.7-10.2-26.3-17.8c-7.6-7.6-13.5-16.4-17.8-26.3c-4.3-10-6.4-20.6-6.4-32.1c0-11.4,2.1-22.1,6.4-32.2
			c4.3-10,10.2-18.8,17.8-26.4c7.6-7.6,16.4-13.5,26.3-17.8c10-4.3,20.6-6.4,32.1-6.4c13.9,0,25.9,3.3,36,10s17.8,15.4,23.3,26.3
			L240.4,492L240.4,492z M181.3,715.3c12.1,0,22.4-3,31.1-8.9c8.6-5.9,15.3-13.9,19.9-24c4.6-10.1,6.9-21.1,6.9-33.2
			c0-12.4-2.3-23.6-7-33.6s-11.3-18-20-23.9c-8.6-5.9-18.9-8.9-30.9-8.9c-12.1,0-23,3-32.9,9c-9.9,6-17.8,14-23.7,24.1
			c-5.9,10.1-8.9,21.2-8.9,33.3c0,12.4,3,23.5,9,33.5c6,10,14,17.9,24,23.7C158.7,712.4,169.6,715.3,181.3,715.3z"/>
		<path class="st1" d="M363.7,732c-14.5,0-27.6-3.7-39.5-11.2c-11.9-7.4-21.4-17.4-28.5-30c-7.1-12.5-10.6-26.4-10.6-41.6
			c0-11.5,2-22.3,6.1-32.3s9.7-18.8,16.9-26.4c7.2-7.6,15.5-13.5,25.1-17.8c9.5-4.3,19.7-6.4,30.5-6.4c11.4,0,22,2.2,31.7,6.7
			s18.1,10.7,25.1,18.8s12.4,17.6,16.2,28.5c3.8,11,5.5,22.9,5.2,35.9h-139c1.2,11.2,4.5,21.3,10.1,30.1
			c5.6,8.9,12.8,15.8,21.6,20.9c8.8,5.1,18.5,7.7,29.1,7.8c11.6,0,22.1-3.1,31.4-9.2c9.3-6.1,16.8-14.5,22.5-25.2l17.1,3.9
			c-6.3,13.9-15.8,25.3-28.5,34.2C393.6,727.5,379.4,732,363.7,732z M302.4,641.7h122.3c-0.6-10.8-3.7-20.7-9.4-29.8
			c-5.6-9.1-12.9-16.3-21.9-21.8c-9-5.4-18.9-8.2-29.7-8.2c-10.8,0-20.7,2.7-29.6,8s-16.2,12.6-21.8,21.6
			C306.7,620.7,303.4,630.7,302.4,641.7z"/>
		<path class="st2" d="M572,732c-14.9,0-28.9-3-42-8.9s-24.6-14.1-34.5-24.5s-17.7-22.6-23.3-36.4c-5.6-13.8-8.4-28.6-8.4-44.3
			s2.8-30.5,8.4-44.3s13.4-26,23.3-36.4s21.4-18.6,34.5-24.5c13.1-5.9,27.1-8.9,42-8.9c17.8,0,34.2,4.1,49.2,12.4s27.4,19.3,37.3,33
			l-29.1,15.6c-6.8-8.6-15.3-15.5-25.3-20.6c-10.1-5.1-20.8-7.7-32.1-7.7c-10.5,0-20.3,2.1-29.4,6.4c-9.1,4.3-17.1,10.2-24.1,17.6
			c-6.9,7.4-12.3,16.1-16.2,25.9c-3.9,9.9-5.8,20.3-5.8,31.4c0,11.2,1.9,21.7,5.8,31.5s9.3,18.5,16.3,25.9c7,7.5,15,13.4,24.1,17.6
			c9.1,4.2,18.9,6.4,29.2,6.4c11.5,0,22.3-2.6,32.3-7.8s18.4-12.1,25.1-20.7l29.1,15.9c-9.9,13.7-22.3,24.7-37.3,32.9
			C606.3,727.8,589.8,732,572,732z"/>
		<path class="st2" d="M688.2,727.9V570.6h32.7v16.7c5.4-6.5,12.2-11.6,20.1-15.4c8-3.8,16.6-5.7,25.8-5.7c5.9,0,11.7,0.8,17.5,2.4
			l-13.1,33c-4.1-1.6-8.2-2.4-12.3-2.4c-6.9,0-13.3,1.7-19,5.1c-5.8,3.4-10.4,8-13.8,13.8c-3.5,5.8-5.2,12.2-5.2,19.2v90.6
			L688.2,727.9L688.2,727.9z"/>
		<path class="st2" d="M864,732c-14.5,0-27.6-3.7-39.5-11.2c-11.9-7.4-21.4-17.4-28.5-30c-7.1-12.5-10.6-26.4-10.6-41.6
			c0-11.5,2-22.3,6.1-32.3s9.7-18.8,16.9-26.4c7.2-7.6,15.5-13.5,25.1-17.8c9.5-4.3,19.7-6.4,30.5-6.4c12.1,0,23.1,2.5,33.2,7.5
			c10.1,5,18.7,11.8,25.8,20.6s12.4,18.8,15.7,30.2c3.4,11.4,4.3,23.5,3,36.2H820.5c1.4,7.2,4,13.8,7.9,19.6s9,10.4,15.1,13.8
			c6.1,3.4,13,5.1,20.5,5.2c8,0,15.2-2,21.8-6c6.5-4,11.9-9.5,16.1-16.5l33.2,7.7c-6.3,13.9-15.8,25.3-28.5,34.2
			C893.9,727.5,879.7,732,864,732z M819.4,635.7h89.3c-1-7.5-3.7-14.4-7.9-20.5s-9.5-11-15.9-14.6c-6.3-3.6-13.3-5.4-20.8-5.4
			c-7.4,0-14.3,1.8-20.7,5.3c-6.3,3.6-11.6,8.4-15.7,14.5C823.5,621.2,820.7,628.1,819.4,635.7z"/>
		<path class="st2" d="M1090,492h32.7v235.9H1090v-23.1c-5.1,8.2-11.8,14.8-20.1,19.7c-8.3,5-18,7.5-29.1,7.5
			c-11.4,0-22.1-2.1-32.1-6.4c-10-4.3-18.7-10.2-26.3-17.8s-13.5-16.4-17.8-26.3c-4.3-10-6.4-20.6-6.4-32.1
			c0-11.4,2.1-22.1,6.4-32.2c4.3-10,10.2-18.8,17.8-26.4c7.6-7.6,16.4-13.5,26.3-17.8c10-4.3,20.6-6.4,32.1-6.4
			c11.1,0,20.8,2.5,29.1,7.5c8.3,5,15,11.5,20.1,19.6V492z M1041.1,700.4c9.2,0,17.3-2.3,24.2-6.8c6.9-4.6,12.3-10.7,16.1-18.5
			c3.8-7.8,5.7-16.4,5.7-25.8c0-9.5-1.9-18.2-5.8-25.9c-3.9-7.8-9.3-13.9-16.1-18.5c-6.9-4.6-14.9-6.8-24.1-6.8
			c-9.1,0-17.4,2.3-24.9,6.9c-7.5,4.6-13.5,10.8-17.9,18.6c-4.5,7.8-6.7,16.4-6.7,25.8c0,9.5,2.3,18.2,6.8,25.9
			c4.6,7.7,10.6,13.8,18.1,18.4C1023.9,698.1,1032.1,700.4,1041.1,700.4z"/>
		<path class="st2" d="M1177.1,547.8c-5,0-9.2-1.6-12.6-4.9c-3.4-3.2-5-7.3-5-12.3c0-4.8,1.7-8.9,5-12.2c3.4-3.3,7.5-5,12.4-5
			c4.8,0,8.9,1.7,12.3,5s5,7.4,5,12.2c0,4.9-1.7,9-5,12.3C1186,546.2,1181.9,547.8,1177.1,547.8z M1160.4,570.6h32.7v157.2h-32.7
			V570.6z"/>
		<path class="st2" d="M1313.9,603.3h-33l-0.2,124.5H1248l0.2-124.5h-25v-32.7h25l-0.2-49.4h32.7l0.2,49.4h33L1313.9,603.3
			L1313.9,603.3z"/>
	</g>
	<g>
		<path class="st1" d="M166.3,1006.9c-8.7-0.1-17.2-1.7-25.6-4.6c-8.3-3-15.6-7-21.8-12c-6.2-5-10.5-10.7-12.9-17.1l14.9-6.4
			c1.8,4.7,5.2,9,10.3,12.7c5.1,3.8,10.8,6.7,17.3,8.9c6.4,2.1,12.8,3.2,18.9,3.2c7,0,13.6-1.2,19.8-3.6c6.2-2.4,11.2-5.8,15.1-10.2
			c3.9-4.4,5.8-9.6,5.8-15.6c0-6.3-2-11.2-6.1-14.9s-9.3-6.5-15.6-8.8s-12.9-4.4-19.6-6.4c-11.5-3.4-21.5-6.8-30-10.3
			c-8.4-3.5-15-8-19.6-13.4s-6.9-12.6-6.9-21.5c0-9.2,2.7-17.2,8-24.1c5.3-6.8,12.4-12.1,21.1-15.8c8.7-3.7,18-5.6,28-5.6
			c12.9,0,24.6,2.8,35.1,8.5s17.9,13.1,22.2,22.3l-13.8,8.2c-2.1-4.8-5.4-9-9.9-12.4c-4.5-3.5-9.6-6.1-15.4-8
			c-5.8-1.9-11.6-2.9-17.5-3c-7.3-0.1-14.2,1-20.5,3.4s-11.5,5.8-15.3,10.2c-3.9,4.5-5.8,9.8-5.8,16.1s1.8,11.1,5.3,14.5
			c3.6,3.4,8.5,6.1,14.9,8.1s13.8,4.4,22.2,7.2c9.7,3,18.8,6.4,27.3,10.1c8.4,3.7,15.3,8.4,20.4,13.9c5.2,5.6,7.7,12.7,7.6,21.5
			c0,9.2-2.8,17.2-8.3,24.1c-5.5,6.8-12.7,12.1-21.5,15.7C185.8,1005.4,176.3,1007.1,166.3,1006.9z"/>
		<path class="st1" d="M367.8,966.9l15.1,8.2c-7.1,10-16.2,17.9-27.1,23.9c-11,6-22.8,9-35.6,9c-14.5,0-27.6-3.7-39.5-11.2
			c-11.9-7.4-21.4-17.4-28.5-30c-7.1-12.5-10.6-26.4-10.6-41.6c0-11.5,2-22.3,6.1-32.3s9.7-18.8,16.9-26.4
			c7.2-7.6,15.5-13.5,25.1-17.8c9.5-4.3,19.7-6.4,30.5-6.4c12.8,0,24.7,3,35.6,9c11,6,20,14,27.1,24.1l-15.1,8
			c-6-7.8-13.2-13.7-21.7-17.8s-17.1-6.2-25.9-6.2c-11.5,0-22,3-31.3,9s-16.7,14-22.2,24.1c-5.5,10-8.2,21-8.2,32.9
			c0,12.1,2.8,23.1,8.3,33c5.6,10,13,17.9,22.3,23.8c9.3,5.9,19.7,8.9,31,8.9c9.5,0,18.5-2.3,26.9-6.8
			C355.5,979.7,362.4,974,367.8,966.9z"/>
		<path class="st1" d="M479.2,1008c-14.5,0-27.6-3.7-39.5-11.2c-11.9-7.4-21.4-17.4-28.5-30c-7.1-12.5-10.6-26.4-10.6-41.6
			c0-11.5,2-22.3,6.1-32.3s9.7-18.8,16.9-26.4c7.2-7.6,15.5-13.5,25.1-17.8c9.5-4.3,19.7-6.4,30.5-6.4c14.5,0,27.6,3.7,39.5,11.2
			c11.9,7.4,21.4,17.5,28.5,30s10.6,26.5,10.6,41.8c0,11.4-2,22.1-6.1,32.1s-9.7,18.7-16.9,26.3s-15.5,13.5-25,17.8
			C500.3,1005.8,490.1,1008,479.2,1008z M479.2,991c11.6,0,22.1-3,31.4-9.1c9.3-6.1,16.6-14.1,22.1-24.1c5.4-10,8.2-20.8,8.2-32.5
			c0-11.8-2.7-22.8-8.2-32.9c-5.5-10.1-12.8-18.1-22.2-24.1c-9.3-6-19.8-9-31.3-9c-11.6,0-22.1,3-31.4,9.1s-16.7,14.1-22.1,24.1
			s-8.1,20.9-8.1,32.8c0,12.3,2.8,23.3,8.4,33.3c5.6,9.9,13.1,17.8,22.4,23.7C457.7,988.1,467.9,991,479.2,991z"/>
		<path class="st1" d="M585.1,1003.9V846.7h17v24.1c5.7-8.7,13.2-15.6,22.5-20.8c9.3-5.1,19.5-7.7,30.5-7.7c6.2,0,12.1,0.8,17.8,2.4
			l-7.1,16.7c-4.5-1.3-8.9-1.9-13.2-1.9c-9.2,0-17.7,2.3-25.3,6.8c-7.7,4.5-13.8,10.6-18.3,18.2c-4.6,7.7-6.8,16.1-6.8,25.5v94
			L585.1,1003.9L585.1,1003.9z"/>
		<path class="st1" d="M754,1008c-14.5,0-27.6-3.7-39.5-11.2c-11.9-7.4-21.4-17.4-28.5-30c-7.1-12.5-10.6-26.4-10.6-41.6
			c0-11.5,2-22.3,6.1-32.3s9.7-18.8,16.9-26.4c7.2-7.6,15.5-13.5,25.1-17.8c9.5-4.3,19.7-6.4,30.5-6.4c11.4,0,22,2.2,31.7,6.7
			s18.1,10.7,25.1,18.8s12.4,17.6,16.2,28.5c3.8,11,5.5,22.9,5.2,35.9h-139c1.2,11.2,4.5,21.3,10.1,30.1
			c5.6,8.9,12.8,15.8,21.6,20.9c8.8,5.1,18.5,7.7,29.1,7.8c11.6,0,22.1-3.1,31.4-9.2c9.3-6.1,16.8-14.5,22.5-25.2l17.1,3.9
			c-6.3,13.9-15.8,25.3-28.5,34.2C783.9,1003.6,769.7,1008,754,1008z M692.7,917.7H815c-0.6-10.8-3.7-20.7-9.4-29.8
			c-5.6-9.1-12.9-16.3-21.9-21.8c-9-5.4-18.9-8.2-29.7-8.2s-20.7,2.7-29.6,8c-8.9,5.3-16.2,12.6-21.8,21.6
			C697.1,896.7,693.7,906.7,692.7,917.7z"/>
	</g>
</g>
</svg>
